<mxfile host="app.diagrams.net" modified="2023-02-22T19:52:13.780Z" agent="5.0 (Macintosh)" etag="FeSAQA_eO_0HP0Ja4b6H" version="20.8.22" type="github" pages="2">
  <diagram id="bheKdWdxJDdxxjgBm_PC" name="MaxRTE">
    <mxGraphModel dx="2524" dy="1922" grid="1" gridSize="10" guides="1" tooltips="1" connect="1" arrows="1" fold="1" page="1" pageScale="1" pageWidth="850" pageHeight="1100" math="0" shadow="0">
      <root>
        <mxCell id="0" />
        <mxCell id="1" parent="0" />
        <mxCell id="yPXykL4vVdgG9a6Ruy27-3" value="" style="edgeStyle=none;rounded=0;orthogonalLoop=1;jettySize=auto;html=1;" parent="1" source="lHm5pYzWGTwYRZ6rRhx0-1" target="yPXykL4vVdgG9a6Ruy27-1" edge="1">
          <mxGeometry relative="1" as="geometry" />
        </mxCell>
        <mxCell id="eZS3xSQGko_UAFB4OBdT-1" style="edgeStyle=orthogonalEdgeStyle;rounded=0;orthogonalLoop=1;jettySize=auto;html=1;entryX=0;entryY=0.25;entryDx=0;entryDy=0;entryPerimeter=0;exitX=0.5;exitY=1;exitDx=0;exitDy=0;exitPerimeter=0;" parent="1" source="lHm5pYzWGTwYRZ6rRhx0-1" target="lHm5pYzWGTwYRZ6rRhx0-4" edge="1">
          <mxGeometry relative="1" as="geometry" />
        </mxCell>
        <mxCell id="lHm5pYzWGTwYRZ6rRhx0-1" value="Amplify" style="sketch=0;points=[[0,0,0],[0.25,0,0],[0.5,0,0],[0.75,0,0],[1,0,0],[0,1,0],[0.25,1,0],[0.5,1,0],[0.75,1,0],[1,1,0],[0,0.25,0],[0,0.5,0],[0,0.75,0],[1,0.25,0],[1,0.5,0],[1,0.75,0]];outlineConnect=0;fontColor=#232F3E;gradientColor=#F54749;gradientDirection=north;fillColor=#C7131F;strokeColor=#ffffff;dashed=0;verticalLabelPosition=bottom;verticalAlign=top;align=center;html=1;fontSize=12;fontStyle=0;aspect=fixed;shape=mxgraph.aws4.resourceIcon;resIcon=mxgraph.aws4.amplify;" parent="1" vertex="1">
          <mxGeometry x="160" y="244.5" width="78" height="78" as="geometry" />
        </mxCell>
        <mxCell id="yPXykL4vVdgG9a6Ruy27-6" value="" style="edgeStyle=orthogonalEdgeStyle;rounded=0;orthogonalLoop=1;jettySize=auto;html=1;" parent="1" source="lHm5pYzWGTwYRZ6rRhx0-2" target="lHm5pYzWGTwYRZ6rRhx0-23" edge="1">
          <mxGeometry relative="1" as="geometry">
            <Array as="points">
              <mxPoint x="530" y="260" />
              <mxPoint x="529" y="260" />
            </Array>
          </mxGeometry>
        </mxCell>
        <mxCell id="vxzUqHN5WOFup0UGfH7t-12" style="edgeStyle=orthogonalEdgeStyle;rounded=0;orthogonalLoop=1;jettySize=auto;html=1;entryX=0.75;entryY=0;entryDx=0;entryDy=0;entryPerimeter=0;" parent="1" source="lHm5pYzWGTwYRZ6rRhx0-2" target="lHm5pYzWGTwYRZ6rRhx0-4" edge="1">
          <mxGeometry relative="1" as="geometry">
            <Array as="points">
              <mxPoint x="309" y="370" />
            </Array>
          </mxGeometry>
        </mxCell>
        <mxCell id="jC9qFEVSS9fCuGW1DAuz-8" style="edgeStyle=orthogonalEdgeStyle;rounded=0;orthogonalLoop=1;jettySize=auto;html=1;" edge="1" parent="1" source="lHm5pYzWGTwYRZ6rRhx0-2" target="jC9qFEVSS9fCuGW1DAuz-6">
          <mxGeometry relative="1" as="geometry">
            <Array as="points">
              <mxPoint x="440" y="260" />
              <mxPoint x="440" y="260" />
            </Array>
          </mxGeometry>
        </mxCell>
        <mxCell id="lHm5pYzWGTwYRZ6rRhx0-2" value="AWS Step Functions workflow" style="points=[[0,0],[0.25,0],[0.5,0],[0.75,0],[1,0],[1,0.25],[1,0.5],[1,0.75],[1,1],[0.75,1],[0.5,1],[0.25,1],[0,1],[0,0.75],[0,0.5],[0,0.25]];outlineConnect=0;gradientColor=none;html=1;whiteSpace=wrap;fontSize=12;fontStyle=0;container=1;pointerEvents=0;collapsible=0;recursiveResize=0;shape=mxgraph.aws4.group;grIcon=mxgraph.aws4.group_aws_step_functions_workflow;strokeColor=#CD2264;fillColor=none;verticalAlign=top;align=left;spacingLeft=30;fontColor=#CD2264;dashed=0;" parent="1" vertex="1">
          <mxGeometry x="413" y="269" width="87" height="61" as="geometry" />
        </mxCell>
        <mxCell id="lHm5pYzWGTwYRZ6rRhx0-24" value="" style="edgeStyle=none;rounded=0;orthogonalLoop=1;jettySize=auto;html=1;exitX=0;exitY=1;exitDx=0;exitDy=0;exitPerimeter=0;" parent="1" edge="1">
          <mxGeometry relative="1" as="geometry">
            <mxPoint x="250" y="467" as="sourcePoint" />
            <mxPoint x="180" y="469" as="targetPoint" />
          </mxGeometry>
        </mxCell>
        <mxCell id="lHm5pYzWGTwYRZ6rRhx0-4" value="EFS/FSx" style="sketch=0;points=[[0,0,0],[0.25,0,0],[0.5,0,0],[0.75,0,0],[1,0,0],[0,1,0],[0.25,1,0],[0.5,1,0],[0.75,1,0],[1,1,0],[0,0.25,0],[0,0.5,0],[0,0.75,0],[1,0.25,0],[1,0.5,0],[1,0.75,0]];outlineConnect=0;fontColor=#232F3E;gradientColor=#60A337;gradientDirection=north;fillColor=#277116;strokeColor=#ffffff;dashed=0;verticalLabelPosition=bottom;verticalAlign=top;align=center;html=1;fontSize=12;fontStyle=0;aspect=fixed;shape=mxgraph.aws4.resourceIcon;resIcon=mxgraph.aws4.efs_standard;" parent="1" vertex="1">
          <mxGeometry x="250" y="400" width="78" height="78" as="geometry" />
        </mxCell>
        <mxCell id="lHm5pYzWGTwYRZ6rRhx0-14" style="edgeStyle=orthogonalEdgeStyle;rounded=0;orthogonalLoop=1;jettySize=auto;html=1;" parent="1" edge="1">
          <mxGeometry relative="1" as="geometry">
            <mxPoint x="623" y="231" as="targetPoint" />
            <mxPoint x="623" y="261" as="sourcePoint" />
          </mxGeometry>
        </mxCell>
        <mxCell id="lHm5pYzWGTwYRZ6rRhx0-5" value="RDS" style="outlineConnect=0;dashed=0;verticalLabelPosition=bottom;verticalAlign=top;align=center;html=1;shape=mxgraph.aws3.rds;fillColor=#2E73B8;gradientColor=none;" parent="1" vertex="1">
          <mxGeometry x="569" y="268" width="72" height="81" as="geometry" />
        </mxCell>
        <mxCell id="lHm5pYzWGTwYRZ6rRhx0-6" value="AWS CloudHSM" style="sketch=0;outlineConnect=0;fontColor=#232F3E;gradientColor=none;strokeColor=#ffffff;fillColor=#232F3E;dashed=0;verticalLabelPosition=middle;verticalAlign=bottom;align=center;html=1;whiteSpace=wrap;fontSize=10;fontStyle=1;spacing=3;shape=mxgraph.aws4.productIcon;prIcon=mxgraph.aws4.cloudhsm;" parent="1" vertex="1">
          <mxGeometry x="606" y="118" width="80" height="110" as="geometry" />
        </mxCell>
        <mxCell id="Gslmsh7NF-PHZ5TLiP44-1" value="AWS Secrets Manager" style="sketch=0;outlineConnect=0;fontColor=#232F3E;gradientColor=none;strokeColor=#ffffff;fillColor=#232F3E;dashed=0;verticalLabelPosition=middle;verticalAlign=bottom;align=center;html=1;whiteSpace=wrap;fontSize=10;fontStyle=1;spacing=3;shape=mxgraph.aws4.productIcon;prIcon=mxgraph.aws4.secrets_manager;" parent="1" vertex="1">
          <mxGeometry x="706" y="118" width="80" height="110" as="geometry" />
        </mxCell>
        <mxCell id="yPXykL4vVdgG9a6Ruy27-4" style="edgeStyle=none;rounded=0;orthogonalLoop=1;jettySize=auto;html=1;" parent="1" source="yPXykL4vVdgG9a6Ruy27-1" edge="1">
          <mxGeometry relative="1" as="geometry">
            <mxPoint x="410" y="285.5" as="targetPoint" />
          </mxGeometry>
        </mxCell>
        <mxCell id="yPXykL4vVdgG9a6Ruy27-1" value="Amazon API Gateway" style="sketch=0;outlineConnect=0;fontColor=#232F3E;gradientColor=none;strokeColor=#ffffff;fillColor=#232F3E;dashed=0;verticalLabelPosition=middle;verticalAlign=bottom;align=center;html=1;whiteSpace=wrap;fontSize=10;fontStyle=1;spacing=3;shape=mxgraph.aws4.productIcon;prIcon=mxgraph.aws4.api_gateway;" parent="1" vertex="1">
          <mxGeometry x="280" y="230.5" width="80" height="110" as="geometry" />
        </mxCell>
        <mxCell id="sQa-wAJVE0qs__E2zI63-5" value="" style="edgeStyle=none;rounded=0;orthogonalLoop=1;jettySize=auto;html=1;" parent="1" source="sQa-wAJVE0qs__E2zI63-1" target="lHm5pYzWGTwYRZ6rRhx0-5" edge="1">
          <mxGeometry relative="1" as="geometry" />
        </mxCell>
        <mxCell id="sQa-wAJVE0qs__E2zI63-11" style="edgeStyle=orthogonalEdgeStyle;rounded=0;orthogonalLoop=1;jettySize=auto;html=1;entryX=0.5;entryY=1;entryDx=0;entryDy=0;entryPerimeter=0;" parent="1" source="sQa-wAJVE0qs__E2zI63-1" target="lHm5pYzWGTwYRZ6rRhx0-4" edge="1">
          <mxGeometry relative="1" as="geometry">
            <Array as="points">
              <mxPoint x="550" y="510" />
              <mxPoint x="289" y="510" />
            </Array>
          </mxGeometry>
        </mxCell>
        <mxCell id="sQa-wAJVE0qs__E2zI63-10" value="" style="edgeStyle=none;rounded=0;orthogonalLoop=1;jettySize=auto;html=1;exitX=0;exitY=0.5;exitDx=0;exitDy=0;exitPerimeter=0;" parent="1" source="sQa-wAJVE0qs__E2zI63-6" edge="1">
          <mxGeometry relative="1" as="geometry">
            <mxPoint x="630" y="618" as="sourcePoint" />
            <mxPoint x="-316" y="618.1350000000002" as="targetPoint" />
          </mxGeometry>
        </mxCell>
        <mxCell id="sQa-wAJVE0qs__E2zI63-8" value="VPC" style="points=[[0,0],[0.25,0],[0.5,0],[0.75,0],[1,0],[1,0.25],[1,0.5],[1,0.75],[1,1],[0.75,1],[0.5,1],[0.25,1],[0,1],[0,0.75],[0,0.5],[0,0.25]];outlineConnect=0;gradientColor=none;html=1;whiteSpace=wrap;fontSize=12;fontStyle=0;container=1;pointerEvents=0;collapsible=0;recursiveResize=0;shape=mxgraph.aws4.group;grIcon=mxgraph.aws4.group_vpc;strokeColor=#248814;fillColor=none;verticalAlign=top;align=left;spacingLeft=30;fontColor=#AAB7B8;dashed=0;" parent="1" vertex="1">
          <mxGeometry x="-120" y="210" width="818" height="360" as="geometry" />
        </mxCell>
        <mxCell id="JebNU88CJQG99LWVZyKA-1" value="" style="edgeStyle=orthogonalEdgeStyle;rounded=0;orthogonalLoop=1;jettySize=auto;html=1;" parent="1" source="JebNU88CJQG99LWVZyKA-2" target="JebNU88CJQG99LWVZyKA-5" edge="1">
          <mxGeometry relative="1" as="geometry" />
        </mxCell>
        <mxCell id="JebNU88CJQG99LWVZyKA-2" value="Route 53" style="sketch=0;points=[[0,0,0],[0.25,0,0],[0.5,0,0],[0.75,0,0],[1,0,0],[0,1,0],[0.25,1,0],[0.5,1,0],[0.75,1,0],[1,1,0],[0,0.25,0],[0,0.5,0],[0,0.75,0],[1,0.25,0],[1,0.5,0],[1,0.75,0]];outlineConnect=0;fontColor=#232F3E;gradientColor=#945DF2;gradientDirection=north;fillColor=#5A30B5;strokeColor=#ffffff;dashed=0;verticalLabelPosition=bottom;verticalAlign=top;align=center;html=1;fontSize=12;fontStyle=0;aspect=fixed;shape=mxgraph.aws4.resourceIcon;resIcon=mxgraph.aws4.route_53;" parent="1" vertex="1">
          <mxGeometry x="-328" y="247" width="65" height="65" as="geometry" />
        </mxCell>
        <mxCell id="JebNU88CJQG99LWVZyKA-3" value="" style="edgeStyle=orthogonalEdgeStyle;rounded=0;orthogonalLoop=1;jettySize=auto;html=1;" parent="1" target="JebNU88CJQG99LWVZyKA-2" edge="1">
          <mxGeometry relative="1" as="geometry">
            <mxPoint x="-361" y="279.5" as="sourcePoint" />
          </mxGeometry>
        </mxCell>
        <mxCell id="0eNmcDPVIUEGgoxXKB1A-2" value="" style="edgeStyle=orthogonalEdgeStyle;rounded=0;orthogonalLoop=1;jettySize=auto;html=1;entryX=-0.029;entryY=0.407;entryDx=0;entryDy=0;entryPerimeter=0;" parent="1" source="JebNU88CJQG99LWVZyKA-5" target="0eNmcDPVIUEGgoxXKB1A-1" edge="1">
          <mxGeometry relative="1" as="geometry" />
        </mxCell>
        <mxCell id="JebNU88CJQG99LWVZyKA-5" value="WAF" style="sketch=0;points=[[0,0,0],[0.25,0,0],[0.5,0,0],[0.75,0,0],[1,0,0],[0,1,0],[0.25,1,0],[0.5,1,0],[0.75,1,0],[1,1,0],[0,0.25,0],[0,0.5,0],[0,0.75,0],[1,0.25,0],[1,0.5,0],[1,0.75,0]];outlineConnect=0;fontColor=#232F3E;gradientColor=#F54749;gradientDirection=north;fillColor=#C7131F;strokeColor=#ffffff;dashed=0;verticalLabelPosition=bottom;verticalAlign=top;align=center;html=1;fontSize=12;fontStyle=0;aspect=fixed;shape=mxgraph.aws4.resourceIcon;resIcon=mxgraph.aws4.waf;" parent="1" vertex="1">
          <mxGeometry x="-240" y="249.5" width="59.5" height="59.5" as="geometry" />
        </mxCell>
        <mxCell id="cL5m73lOZh0V7bfWZF7K-1" value="" style="rounded=1;whiteSpace=wrap;html=1;" parent="1" vertex="1">
          <mxGeometry x="-154" y="-16.5" width="418" height="120" as="geometry" />
        </mxCell>
        <mxCell id="cL5m73lOZh0V7bfWZF7K-2" value="" style="edgeStyle=orthogonalEdgeStyle;rounded=0;orthogonalLoop=1;jettySize=auto;html=1;" parent="1" source="cL5m73lOZh0V7bfWZF7K-3" target="cL5m73lOZh0V7bfWZF7K-6" edge="1">
          <mxGeometry relative="1" as="geometry" />
        </mxCell>
        <mxCell id="cL5m73lOZh0V7bfWZF7K-3" value="CodeCommit" style="sketch=0;points=[[0,0,0],[0.25,0,0],[0.5,0,0],[0.75,0,0],[1,0,0],[0,1,0],[0.25,1,0],[0.5,1,0],[0.75,1,0],[1,1,0],[0,0.25,0],[0,0.5,0],[0,0.75,0],[1,0.25,0],[1,0.5,0],[1,0.75,0]];outlineConnect=0;fontColor=#232F3E;gradientColor=#4D72F3;gradientDirection=north;fillColor=#3334B9;strokeColor=#ffffff;dashed=0;verticalLabelPosition=bottom;verticalAlign=top;align=center;html=1;fontSize=12;fontStyle=0;aspect=fixed;shape=mxgraph.aws4.resourceIcon;resIcon=mxgraph.aws4.codecommit;" parent="1" vertex="1">
          <mxGeometry x="9" y="-6.5" width="78" height="78" as="geometry" />
        </mxCell>
        <mxCell id="cL5m73lOZh0V7bfWZF7K-4" value="" style="edgeStyle=orthogonalEdgeStyle;rounded=0;orthogonalLoop=1;jettySize=auto;html=1;" parent="1" source="cL5m73lOZh0V7bfWZF7K-5" target="cL5m73lOZh0V7bfWZF7K-3" edge="1">
          <mxGeometry relative="1" as="geometry" />
        </mxCell>
        <mxCell id="cL5m73lOZh0V7bfWZF7K-5" value="CodeBuild" style="sketch=0;points=[[0,0,0],[0.25,0,0],[0.5,0,0],[0.75,0,0],[1,0,0],[0,1,0],[0.25,1,0],[0.5,1,0],[0.75,1,0],[1,1,0],[0,0.25,0],[0,0.5,0],[0,0.75,0],[1,0.25,0],[1,0.5,0],[1,0.75,0]];outlineConnect=0;fontColor=#232F3E;gradientColor=#4D72F3;gradientDirection=north;fillColor=#3334B9;strokeColor=#ffffff;dashed=0;verticalLabelPosition=bottom;verticalAlign=top;align=center;html=1;fontSize=12;fontStyle=0;aspect=fixed;shape=mxgraph.aws4.resourceIcon;resIcon=mxgraph.aws4.codebuild;" parent="1" vertex="1">
          <mxGeometry x="-136" y="-6.5" width="78" height="78" as="geometry" />
        </mxCell>
        <mxCell id="cL5m73lOZh0V7bfWZF7K-6" value="CodeDeploy" style="sketch=0;points=[[0,0,0],[0.25,0,0],[0.5,0,0],[0.75,0,0],[1,0,0],[0,1,0],[0.25,1,0],[0.5,1,0],[0.75,1,0],[1,1,0],[0,0.25,0],[0,0.5,0],[0,0.75,0],[1,0.25,0],[1,0.5,0],[1,0.75,0]];outlineConnect=0;fontColor=#232F3E;gradientColor=#4D72F3;gradientDirection=north;fillColor=#3334B9;strokeColor=#ffffff;dashed=0;verticalLabelPosition=bottom;verticalAlign=top;align=center;html=1;fontSize=12;fontStyle=0;aspect=fixed;shape=mxgraph.aws4.resourceIcon;resIcon=mxgraph.aws4.codedeploy;" parent="1" vertex="1">
          <mxGeometry x="164" y="-6.5" width="78" height="78" as="geometry" />
        </mxCell>
        <mxCell id="cL5m73lOZh0V7bfWZF7K-7" value="CodePipeline" style="sketch=0;points=[[0,0,0],[0.25,0,0],[0.5,0,0],[0.75,0,0],[1,0,0],[0,1,0],[0.25,1,0],[0.5,1,0],[0.75,1,0],[1,1,0],[0,0.25,0],[0,0.5,0],[0,0.75,0],[1,0.25,0],[1,0.5,0],[1,0.75,0]];outlineConnect=0;fontColor=#232F3E;gradientColor=#4D72F3;gradientDirection=north;fillColor=#3334B9;strokeColor=#ffffff;dashed=0;verticalLabelPosition=bottom;verticalAlign=top;align=center;html=1;fontSize=12;fontStyle=0;aspect=fixed;shape=mxgraph.aws4.resourceIcon;resIcon=mxgraph.aws4.codepipeline;" parent="1" vertex="1">
          <mxGeometry x="-135" y="-116.5" width="78" height="78" as="geometry" />
        </mxCell>
        <mxCell id="cL5m73lOZh0V7bfWZF7K-8" style="edgeStyle=orthogonalEdgeStyle;rounded=0;orthogonalLoop=1;jettySize=auto;html=1;entryX=-0.007;entryY=0.338;entryDx=0;entryDy=0;entryPerimeter=0;" parent="1" source="cL5m73lOZh0V7bfWZF7K-9" target="cL5m73lOZh0V7bfWZF7K-1" edge="1">
          <mxGeometry relative="1" as="geometry">
            <mxPoint x="-226" y="23.5" as="targetPoint" />
          </mxGeometry>
        </mxCell>
        <mxCell id="cL5m73lOZh0V7bfWZF7K-9" value="Developers" style="shape=umlActor;verticalLabelPosition=bottom;verticalAlign=top;html=1;outlineConnect=0;" parent="1" vertex="1">
          <mxGeometry x="-316" y="-6.5" width="30" height="60" as="geometry" />
        </mxCell>
        <mxCell id="dU4BXsjxhqeicer3mjZO-4" value="Region" style="points=[[0,0],[0.25,0],[0.5,0],[0.75,0],[1,0],[1,0.25],[1,0.5],[1,0.75],[1,1],[0.75,1],[0.5,1],[0.25,1],[0,1],[0,0.75],[0,0.5],[0,0.25]];outlineConnect=0;gradientColor=none;html=1;whiteSpace=wrap;fontSize=12;fontStyle=0;container=1;pointerEvents=0;collapsible=0;recursiveResize=0;shape=mxgraph.aws4.group;grIcon=mxgraph.aws4.group_region;strokeColor=#147EBA;fillColor=none;verticalAlign=top;align=left;spacingLeft=30;fontColor=#147EBA;dashed=1;" parent="1" vertex="1">
          <mxGeometry x="-200" y="-240" width="1040" height="900" as="geometry" />
        </mxCell>
        <mxCell id="vxzUqHN5WOFup0UGfH7t-7" value="" style="rounded=1;whiteSpace=wrap;html=1;" parent="dU4BXsjxhqeicer3mjZO-4" vertex="1">
          <mxGeometry x="598" y="228" width="295" height="110" as="geometry" />
        </mxCell>
        <mxCell id="vxzUqHN5WOFup0UGfH7t-5" value="" style="rounded=1;whiteSpace=wrap;html=1;" parent="dU4BXsjxhqeicer3mjZO-4" vertex="1">
          <mxGeometry x="488" y="98" width="390" height="110" as="geometry" />
        </mxCell>
        <mxCell id="cL5m73lOZh0V7bfWZF7K-16" value="Macie" style="sketch=0;points=[[0,0,0],[0.25,0,0],[0.5,0,0],[0.75,0,0],[1,0,0],[0,1,0],[0.25,1,0],[0.5,1,0],[0.75,1,0],[1,1,0],[0,0.25,0],[0,0.5,0],[0,0.75,0],[1,0.25,0],[1,0.5,0],[1,0.75,0]];outlineConnect=0;fontColor=#232F3E;gradientColor=#F54749;gradientDirection=north;fillColor=#C7131F;strokeColor=#ffffff;dashed=0;verticalLabelPosition=bottom;verticalAlign=top;align=center;html=1;fontSize=12;fontStyle=0;aspect=fixed;shape=mxgraph.aws4.resourceIcon;resIcon=mxgraph.aws4.macie;" parent="dU4BXsjxhqeicer3mjZO-4" vertex="1">
          <mxGeometry x="817" y="238" width="70" height="70" as="geometry" />
        </mxCell>
        <mxCell id="cL5m73lOZh0V7bfWZF7K-15" value="STS" style="sketch=0;outlineConnect=0;fontColor=#232F3E;gradientColor=none;fillColor=#BF0816;strokeColor=none;dashed=0;verticalLabelPosition=bottom;verticalAlign=top;align=center;html=1;fontSize=12;fontStyle=0;aspect=fixed;pointerEvents=1;shape=mxgraph.aws4.sts;" parent="dU4BXsjxhqeicer3mjZO-4" vertex="1">
          <mxGeometry x="360" y="135" width="56.16" height="36" as="geometry" />
        </mxCell>
        <mxCell id="cL5m73lOZh0V7bfWZF7K-14" value="ACM" style="sketch=0;points=[[0,0,0],[0.25,0,0],[0.5,0,0],[0.75,0,0],[1,0,0],[0,1,0],[0.25,1,0],[0.5,1,0],[0.75,1,0],[1,1,0],[0,0.25,0],[0,0.5,0],[0,0.75,0],[1,0.25,0],[1,0.5,0],[1,0.75,0]];outlineConnect=0;fontColor=#232F3E;gradientColor=#F54749;gradientDirection=north;fillColor=#C7131F;strokeColor=#ffffff;dashed=0;verticalLabelPosition=bottom;verticalAlign=top;align=center;html=1;fontSize=12;fontStyle=0;aspect=fixed;shape=mxgraph.aws4.resourceIcon;resIcon=mxgraph.aws4.certificate_manager_3;" parent="dU4BXsjxhqeicer3mjZO-4" vertex="1">
          <mxGeometry x="514" y="105" width="73" height="73" as="geometry" />
        </mxCell>
        <mxCell id="0eNmcDPVIUEGgoxXKB1A-1" value="Amazon Cloudfront" style="sketch=0;outlineConnect=0;fontColor=#232F3E;gradientColor=none;strokeColor=#ffffff;fillColor=#232F3E;dashed=0;verticalLabelPosition=middle;verticalAlign=bottom;align=center;html=1;whiteSpace=wrap;fontSize=10;fontStyle=1;spacing=3;shape=mxgraph.aws4.productIcon;prIcon=mxgraph.aws4.cloudfront;" parent="dU4BXsjxhqeicer3mjZO-4" vertex="1">
          <mxGeometry x="52" y="485.75" width="68" height="84.25" as="geometry" />
        </mxCell>
        <mxCell id="vxzUqHN5WOFup0UGfH7t-13" value="" style="rounded=1;whiteSpace=wrap;html=1;" parent="dU4BXsjxhqeicer3mjZO-4" vertex="1">
          <mxGeometry x="190" y="528" width="162" height="142" as="geometry" />
        </mxCell>
        <mxCell id="lHm5pYzWGTwYRZ6rRhx0-29" value="AWS Fargate" style="sketch=0;outlineConnect=0;fontColor=#232F3E;gradientColor=none;strokeColor=#ffffff;fillColor=#232F3E;dashed=0;verticalLabelPosition=middle;verticalAlign=bottom;align=center;html=1;whiteSpace=wrap;fontSize=10;fontStyle=1;spacing=3;shape=mxgraph.aws4.productIcon;prIcon=mxgraph.aws4.fargate;" parent="dU4BXsjxhqeicer3mjZO-4" vertex="1">
          <mxGeometry x="280" y="537" width="60" height="73.75" as="geometry" />
        </mxCell>
        <mxCell id="cL5m73lOZh0V7bfWZF7K-10" value="ECR" style="sketch=0;points=[[0,0,0],[0.25,0,0],[0.5,0,0],[0.75,0,0],[1,0,0],[0,1,0],[0.25,1,0],[0.5,1,0],[0.75,1,0],[1,1,0],[0,0.25,0],[0,0.5,0],[0,0.75,0],[1,0.25,0],[1,0.5,0],[1,0.75,0]];outlineConnect=0;fontColor=#232F3E;gradientColor=#F78E04;gradientDirection=north;fillColor=#D05C17;strokeColor=#ffffff;dashed=0;verticalLabelPosition=bottom;verticalAlign=top;align=center;html=1;fontSize=12;fontStyle=0;aspect=fixed;shape=mxgraph.aws4.resourceIcon;resIcon=mxgraph.aws4.ecr;" parent="dU4BXsjxhqeicer3mjZO-4" vertex="1">
          <mxGeometry x="290" y="613.75" width="50" height="50" as="geometry" />
        </mxCell>
        <mxCell id="dU4BXsjxhqeicer3mjZO-1" value="ELB" style="sketch=0;outlineConnect=0;fontColor=#232F3E;gradientColor=none;fillColor=#4D27AA;strokeColor=none;dashed=0;verticalLabelPosition=bottom;verticalAlign=top;align=center;html=1;fontSize=12;fontStyle=0;aspect=fixed;pointerEvents=1;shape=mxgraph.aws4.application_load_balancer;" parent="dU4BXsjxhqeicer3mjZO-4" vertex="1">
          <mxGeometry x="190" y="545.5" width="55.5" height="55.5" as="geometry" />
        </mxCell>
        <mxCell id="dU4BXsjxhqeicer3mjZO-3" value="" style="edgeStyle=orthogonalEdgeStyle;rounded=0;orthogonalLoop=1;jettySize=auto;html=1;" parent="dU4BXsjxhqeicer3mjZO-4" source="dU4BXsjxhqeicer3mjZO-1" target="lHm5pYzWGTwYRZ6rRhx0-29" edge="1">
          <mxGeometry relative="1" as="geometry" />
        </mxCell>
        <mxCell id="lHm5pYzWGTwYRZ6rRhx0-23" value="SNS" style="sketch=0;points=[[0,0,0],[0.25,0,0],[0.5,0,0],[0.75,0,0],[1,0,0],[0,1,0],[0.25,1,0],[0.5,1,0],[0.75,1,0],[1,1,0],[0,0.25,0],[0,0.5,0],[0,0.75,0],[1,0.25,0],[1,0.5,0],[1,0.75,0]];outlineConnect=0;fontColor=#232F3E;gradientColor=#FF4F8B;gradientDirection=north;fillColor=#BC1356;strokeColor=#ffffff;dashed=0;verticalLabelPosition=bottom;verticalAlign=top;align=center;html=1;fontSize=12;fontStyle=0;aspect=fixed;shape=mxgraph.aws4.resourceIcon;resIcon=mxgraph.aws4.sns;" parent="dU4BXsjxhqeicer3mjZO-4" vertex="1">
          <mxGeometry x="690" y="407.75" width="78" height="78" as="geometry" />
        </mxCell>
        <mxCell id="lHm5pYzWGTwYRZ6rRhx0-3" value="S3" style="sketch=0;points=[[0,0,0],[0.25,0,0],[0.5,0,0],[0.75,0,0],[1,0,0],[0,1,0],[0.25,1,0],[0.5,1,0],[0.75,1,0],[1,1,0],[0,0.25,0],[0,0.5,0],[0,0.75,0],[1,0.25,0],[1,0.5,0],[1,0.75,0]];outlineConnect=0;fontColor=#232F3E;gradientColor=#60A337;gradientDirection=north;fillColor=#277116;strokeColor=#ffffff;dashed=0;verticalLabelPosition=bottom;verticalAlign=top;align=center;html=1;fontSize=12;fontStyle=0;aspect=fixed;shape=mxgraph.aws4.resourceIcon;resIcon=mxgraph.aws4.s3;" parent="dU4BXsjxhqeicer3mjZO-4" vertex="1">
          <mxGeometry x="300" y="700" width="78" height="78" as="geometry" />
        </mxCell>
        <mxCell id="jC9qFEVSS9fCuGW1DAuz-2" style="edgeStyle=orthogonalEdgeStyle;rounded=0;orthogonalLoop=1;jettySize=auto;html=1;" edge="1" parent="dU4BXsjxhqeicer3mjZO-4" source="sQa-wAJVE0qs__E2zI63-1" target="jC9qFEVSS9fCuGW1DAuz-1">
          <mxGeometry relative="1" as="geometry" />
        </mxCell>
        <mxCell id="sQa-wAJVE0qs__E2zI63-1" value="AWS Lambda" style="sketch=0;outlineConnect=0;fontColor=#232F3E;gradientColor=none;strokeColor=#ffffff;fillColor=#232F3E;dashed=0;verticalLabelPosition=middle;verticalAlign=bottom;align=center;html=1;whiteSpace=wrap;fontSize=10;fontStyle=1;spacing=3;shape=mxgraph.aws4.productIcon;prIcon=mxgraph.aws4.lambda;" parent="dU4BXsjxhqeicer3mjZO-4" vertex="1">
          <mxGeometry x="724" y="640" width="80" height="100" as="geometry" />
        </mxCell>
        <mxCell id="sQa-wAJVE0qs__E2zI63-4" value="" style="edgeStyle=none;rounded=0;orthogonalLoop=1;jettySize=auto;html=1;" parent="dU4BXsjxhqeicer3mjZO-4" target="sQa-wAJVE0qs__E2zI63-1" edge="1">
          <mxGeometry relative="1" as="geometry">
            <mxPoint x="693" y="690" as="sourcePoint" />
          </mxGeometry>
        </mxCell>
        <mxCell id="TaXMixEk9pz3yE47F7tu-2" value="AWS CloudFormation" style="sketch=0;outlineConnect=0;fontColor=#232F3E;gradientColor=none;strokeColor=#ffffff;fillColor=#232F3E;dashed=0;verticalLabelPosition=middle;verticalAlign=bottom;align=center;html=1;whiteSpace=wrap;fontSize=10;fontStyle=1;spacing=3;shape=mxgraph.aws4.productIcon;prIcon=mxgraph.aws4.cloudformation;" parent="dU4BXsjxhqeicer3mjZO-4" vertex="1">
          <mxGeometry x="170" y="118" width="70" height="100" as="geometry" />
        </mxCell>
        <mxCell id="TaXMixEk9pz3yE47F7tu-3" value="Tagging" style="shape=image;html=1;verticalAlign=top;verticalLabelPosition=bottom;labelBackgroundColor=#ffffff;imageAspect=0;aspect=fixed;image=https://cdn4.iconfinder.com/data/icons/online-marketing-hand-drawn-vol-4/52/tag__business__ecommerce__tagging__marketing__pricetag__sale-128.png" parent="dU4BXsjxhqeicer3mjZO-4" vertex="1">
          <mxGeometry x="270" y="123" width="60" height="60" as="geometry" />
        </mxCell>
        <mxCell id="UgWKCmI1h3rVBjiNeXVy-1" value="AWS Key Management Service" style="sketch=0;outlineConnect=0;fontColor=#232F3E;gradientColor=none;strokeColor=#ffffff;fillColor=#232F3E;dashed=0;verticalLabelPosition=middle;verticalAlign=bottom;align=center;html=1;whiteSpace=wrap;fontSize=10;fontStyle=1;spacing=3;shape=mxgraph.aws4.productIcon;prIcon=mxgraph.aws4.key_management_service;" parent="dU4BXsjxhqeicer3mjZO-4" vertex="1">
          <mxGeometry x="906" y="478" width="80" height="120" as="geometry" />
        </mxCell>
        <mxCell id="lHm5pYzWGTwYRZ6rRhx0-13" style="edgeStyle=orthogonalEdgeStyle;rounded=0;orthogonalLoop=1;jettySize=auto;html=1;" parent="dU4BXsjxhqeicer3mjZO-4" edge="1">
          <mxGeometry relative="1" as="geometry">
            <mxPoint x="772" y="550" as="targetPoint" />
            <Array as="points">
              <mxPoint x="710" y="550" />
              <mxPoint x="710" y="550" />
            </Array>
            <mxPoint x="700" y="550" as="sourcePoint" />
          </mxGeometry>
        </mxCell>
        <mxCell id="sQa-wAJVE0qs__E2zI63-6" value="Site to site VPN" style="sketch=0;points=[[0,0,0],[0.25,0,0],[0.5,0,0],[0.75,0,0],[1,0,0],[0,1,0],[0.25,1,0],[0.5,1,0],[0.75,1,0],[1,1,0],[0,0.25,0],[0,0.5,0],[0,0.75,0],[1,0.25,0],[1,0.5,0],[1,0.75,0]];outlineConnect=0;fontColor=#232F3E;gradientColor=#945DF2;gradientDirection=north;fillColor=#5A30B5;strokeColor=#ffffff;dashed=0;verticalLabelPosition=bottom;verticalAlign=top;align=center;html=1;fontSize=12;fontStyle=0;aspect=fixed;shape=mxgraph.aws4.resourceIcon;resIcon=mxgraph.aws4.site_to_site_vpn;" parent="dU4BXsjxhqeicer3mjZO-4" vertex="1">
          <mxGeometry x="511.5" y="820" width="78" height="78" as="geometry" />
        </mxCell>
        <mxCell id="jC9qFEVSS9fCuGW1DAuz-3" style="edgeStyle=orthogonalEdgeStyle;rounded=0;orthogonalLoop=1;jettySize=auto;html=1;" edge="1" parent="dU4BXsjxhqeicer3mjZO-4" source="jC9qFEVSS9fCuGW1DAuz-1" target="sQa-wAJVE0qs__E2zI63-6">
          <mxGeometry relative="1" as="geometry">
            <Array as="points">
              <mxPoint x="630" y="830" />
              <mxPoint x="630" y="830" />
            </Array>
          </mxGeometry>
        </mxCell>
        <mxCell id="jC9qFEVSS9fCuGW1DAuz-1" value="VPN Gateway" style="sketch=0;outlineConnect=0;fontColor=#232F3E;gradientColor=none;strokeColor=#232F3E;fillColor=#ffffff;dashed=0;verticalLabelPosition=bottom;verticalAlign=top;align=center;html=1;fontSize=12;fontStyle=0;aspect=fixed;shape=mxgraph.aws4.resourceIcon;resIcon=mxgraph.aws4.vpn_gateway;" vertex="1" parent="dU4BXsjxhqeicer3mjZO-4">
          <mxGeometry x="734" y="800" width="60" height="60" as="geometry" />
        </mxCell>
        <mxCell id="jC9qFEVSS9fCuGW1DAuz-6" value="Amazon SQS" style="sketch=0;outlineConnect=0;fontColor=#232F3E;gradientColor=none;strokeColor=#ffffff;fillColor=#232F3E;dashed=0;verticalLabelPosition=middle;verticalAlign=bottom;align=center;html=1;whiteSpace=wrap;fontSize=10;fontStyle=1;spacing=3;shape=mxgraph.aws4.productIcon;prIcon=mxgraph.aws4.sqs;" vertex="1" parent="dU4BXsjxhqeicer3mjZO-4">
          <mxGeometry x="610" y="401.75" width="60" height="90" as="geometry" />
        </mxCell>
        <mxCell id="cL5m73lOZh0V7bfWZF7K-12" value="CloudTrail" style="sketch=0;points=[[0,0,0],[0.25,0,0],[0.5,0,0],[0.75,0,0],[1,0,0],[0,1,0],[0.25,1,0],[0.5,1,0],[0.75,1,0],[1,1,0],[0,0.25,0],[0,0.5,0],[0,0.75,0],[1,0.25,0],[1,0.5,0],[1,0.75,0]];points=[[0,0,0],[0.25,0,0],[0.5,0,0],[0.75,0,0],[1,0,0],[0,1,0],[0.25,1,0],[0.5,1,0],[0.75,1,0],[1,1,0],[0,0.25,0],[0,0.5,0],[0,0.75,0],[1,0.25,0],[1,0.5,0],[1,0.75,0]];outlineConnect=0;fontColor=#232F3E;gradientColor=#F34482;gradientDirection=north;fillColor=#BC1356;strokeColor=#ffffff;dashed=0;verticalLabelPosition=bottom;verticalAlign=top;align=center;html=1;fontSize=12;fontStyle=0;aspect=fixed;shape=mxgraph.aws4.resourceIcon;resIcon=mxgraph.aws4.cloudtrail;" parent="1" vertex="1">
          <mxGeometry x="497" y="-138" width="66" height="66" as="geometry" />
        </mxCell>
        <mxCell id="cL5m73lOZh0V7bfWZF7K-11" value="IAM" style="outlineConnect=0;dashed=0;verticalLabelPosition=bottom;verticalAlign=top;align=center;html=1;shape=mxgraph.aws3.iam;fillColor=#759C3E;gradientColor=none;" parent="1" vertex="1">
          <mxGeometry x="423" y="-143" width="35" height="71" as="geometry" />
        </mxCell>
        <mxCell id="cL5m73lOZh0V7bfWZF7K-13" value="CloudWatch" style="sketch=0;points=[[0,0,0],[0.25,0,0],[0.5,0,0],[0.75,0,0],[1,0,0],[0,1,0],[0.25,1,0],[0.5,1,0],[0.75,1,0],[1,1,0],[0,0.25,0],[0,0.5,0],[0,0.75,0],[1,0.25,0],[1,0.5,0],[1,0.75,0]];points=[[0,0,0],[0.25,0,0],[0.5,0,0],[0.75,0,0],[1,0,0],[0,1,0],[0.25,1,0],[0.5,1,0],[0.75,1,0],[1,1,0],[0,0.25,0],[0,0.5,0],[0,0.75,0],[1,0.25,0],[1,0.5,0],[1,0.75,0]];outlineConnect=0;fontColor=#232F3E;gradientColor=#F34482;gradientDirection=north;fillColor=#BC1356;strokeColor=#ffffff;dashed=0;verticalLabelPosition=bottom;verticalAlign=top;align=center;html=1;fontSize=12;fontStyle=0;aspect=fixed;shape=mxgraph.aws4.resourceIcon;resIcon=mxgraph.aws4.cloudwatch_2;" parent="1" vertex="1">
          <mxGeometry x="598" y="-136" width="54" height="54" as="geometry" />
        </mxCell>
        <mxCell id="cL5m73lOZh0V7bfWZF7K-17" value="Config" style="sketch=0;points=[[0,0,0],[0.25,0,0],[0.5,0,0],[0.75,0,0],[1,0,0],[0,1,0],[0.25,1,0],[0.5,1,0],[0.75,1,0],[1,1,0],[0,0.25,0],[0,0.5,0],[0,0.75,0],[1,0.25,0],[1,0.5,0],[1,0.75,0]];points=[[0,0,0],[0.25,0,0],[0.5,0,0],[0.75,0,0],[1,0,0],[0,1,0],[0.25,1,0],[0.5,1,0],[0.75,1,0],[1,1,0],[0,0.25,0],[0,0.5,0],[0,0.75,0],[1,0.25,0],[1,0.5,0],[1,0.75,0]];outlineConnect=0;fontColor=#232F3E;gradientColor=#F34482;gradientDirection=north;fillColor=#BC1356;strokeColor=#ffffff;dashed=0;verticalLabelPosition=bottom;verticalAlign=top;align=center;html=1;fontSize=12;fontStyle=0;aspect=fixed;shape=mxgraph.aws4.resourceIcon;resIcon=mxgraph.aws4.config;" parent="1" vertex="1">
          <mxGeometry x="423" y="-4.5" width="62.5" height="62.5" as="geometry" />
        </mxCell>
        <mxCell id="cL5m73lOZh0V7bfWZF7K-18" value="Trusted Advisor" style="sketch=0;points=[[0,0,0],[0.25,0,0],[0.5,0,0],[0.75,0,0],[1,0,0],[0,1,0],[0.25,1,0],[0.5,1,0],[0.75,1,0],[1,1,0],[0,0.25,0],[0,0.5,0],[0,0.75,0],[1,0.25,0],[1,0.5,0],[1,0.75,0]];points=[[0,0,0],[0.25,0,0],[0.5,0,0],[0.75,0,0],[1,0,0],[0,1,0],[0.25,1,0],[0.5,1,0],[0.75,1,0],[1,1,0],[0,0.25,0],[0,0.5,0],[0,0.75,0],[1,0.25,0],[1,0.5,0],[1,0.75,0]];outlineConnect=0;fontColor=#232F3E;gradientColor=#F34482;gradientDirection=north;fillColor=#BC1356;strokeColor=#ffffff;dashed=0;verticalLabelPosition=bottom;verticalAlign=top;align=center;html=1;fontSize=12;fontStyle=0;aspect=fixed;shape=mxgraph.aws4.resourceIcon;resIcon=mxgraph.aws4.trusted_advisor;" parent="1" vertex="1">
          <mxGeometry x="524" y="-4.5" width="62.5" height="62.5" as="geometry" />
        </mxCell>
        <mxCell id="vxzUqHN5WOFup0UGfH7t-8" value="HIPAA" style="text;html=1;align=center;verticalAlign=middle;resizable=0;points=[];autosize=1;strokeColor=none;fillColor=none;" parent="1" vertex="1">
          <mxGeometry x="697" y="3" width="60" height="30" as="geometry" />
        </mxCell>
        <mxCell id="vxzUqHN5WOFup0UGfH7t-9" value="SECURITY" style="text;html=1;align=center;verticalAlign=middle;resizable=0;points=[];autosize=1;strokeColor=none;fillColor=none;" parent="1" vertex="1">
          <mxGeometry x="681" y="-127" width="80" height="30" as="geometry" />
        </mxCell>
        <mxCell id="0eNmcDPVIUEGgoxXKB1A-5" style="edgeStyle=orthogonalEdgeStyle;rounded=0;orthogonalLoop=1;jettySize=auto;html=1;entryX=0;entryY=0.5;entryDx=0;entryDy=0;entryPerimeter=0;" parent="1" source="0eNmcDPVIUEGgoxXKB1A-1" target="lHm5pYzWGTwYRZ6rRhx0-1" edge="1">
          <mxGeometry relative="1" as="geometry">
            <Array as="points">
              <mxPoint x="35" y="284" />
            </Array>
          </mxGeometry>
        </mxCell>
        <mxCell id="jC9qFEVSS9fCuGW1DAuz-11" value="Users" style="sketch=0;aspect=fixed;pointerEvents=1;shadow=0;dashed=0;html=1;strokeColor=none;labelPosition=center;verticalLabelPosition=bottom;verticalAlign=top;align=center;fillColor=#00188D;shape=mxgraph.azure.enterprise" vertex="1" parent="1">
          <mxGeometry x="-400" y="254.25" width="30" height="50" as="geometry" />
        </mxCell>
        <mxCell id="jC9qFEVSS9fCuGW1DAuz-10" style="edgeStyle=orthogonalEdgeStyle;rounded=0;orthogonalLoop=1;jettySize=auto;html=1;" edge="1" parent="1">
          <mxGeometry relative="1" as="geometry">
            <mxPoint x="-260" y="174" as="targetPoint" />
            <mxPoint x="410" y="174" as="sourcePoint" />
            <Array as="points">
              <mxPoint x="240" y="174" />
              <mxPoint x="240" y="174" />
            </Array>
          </mxGeometry>
        </mxCell>
        <mxCell id="jC9qFEVSS9fCuGW1DAuz-13" value="Users" style="sketch=0;aspect=fixed;pointerEvents=1;shadow=0;dashed=0;html=1;strokeColor=none;labelPosition=center;verticalLabelPosition=bottom;verticalAlign=top;align=center;fillColor=#00188D;shape=mxgraph.azure.enterprise" vertex="1" parent="1">
          <mxGeometry x="-358" y="580" width="30" height="50" as="geometry" />
        </mxCell>
        <mxCell id="jC9qFEVSS9fCuGW1DAuz-15" value="Payer Interface" style="html=1;" vertex="1" parent="1">
          <mxGeometry x="-370" y="150" width="103" height="40" as="geometry" />
        </mxCell>
      </root>
    </mxGraphModel>
  </diagram>
  <diagram name="MAXRTE" id="fnzVo90Cn4uLEvbQsZGK">
    <mxGraphModel dx="2524" dy="1922" grid="1" gridSize="10" guides="1" tooltips="1" connect="1" arrows="1" fold="1" page="1" pageScale="1" pageWidth="850" pageHeight="1100" math="0" shadow="0">
      <root>
        <mxCell id="0" />
        <mxCell id="1" parent="0" />
        <mxCell id="VmOv-Wi3rlKUdceMmR5n-12" value="Region" style="sketch=0;outlineConnect=0;gradientColor=none;html=1;whiteSpace=wrap;fontSize=12;fontStyle=0;shape=mxgraph.aws4.group;grIcon=mxgraph.aws4.group_region;strokeColor=#879196;fillColor=none;verticalAlign=top;align=left;spacingLeft=30;fontColor=#879196;dashed=1;" parent="1" vertex="1">
          <mxGeometry x="-380" y="20" width="1080" height="700" as="geometry" />
        </mxCell>
        <mxCell id="VmOv-Wi3rlKUdceMmR5n-35" value="" style="rounded=1;whiteSpace=wrap;html=1;" parent="1" vertex="1">
          <mxGeometry x="-318" y="110" width="418" height="120" as="geometry" />
        </mxCell>
        <mxCell id="VmOv-Wi3rlKUdceMmR5n-95" value="" style="edgeStyle=orthogonalEdgeStyle;rounded=0;orthogonalLoop=1;jettySize=auto;html=1;" parent="1" source="VmOv-Wi3rlKUdceMmR5n-4" target="VmOv-Wi3rlKUdceMmR5n-93" edge="1">
          <mxGeometry relative="1" as="geometry" />
        </mxCell>
        <mxCell id="VmOv-Wi3rlKUdceMmR5n-4" value="Amplify" style="sketch=0;points=[[0,0,0],[0.25,0,0],[0.5,0,0],[0.75,0,0],[1,0,0],[0,1,0],[0.25,1,0],[0.5,1,0],[0.75,1,0],[1,1,0],[0,0.25,0],[0,0.5,0],[0,0.75,0],[1,0.25,0],[1,0.5,0],[1,0.75,0]];outlineConnect=0;fontColor=#232F3E;gradientColor=#F54749;gradientDirection=north;fillColor=#C7131F;strokeColor=#ffffff;dashed=0;verticalLabelPosition=bottom;verticalAlign=top;align=center;html=1;fontSize=12;fontStyle=0;aspect=fixed;shape=mxgraph.aws4.resourceIcon;resIcon=mxgraph.aws4.amplify;" parent="1" vertex="1">
          <mxGeometry x="-154" y="240" width="78" height="78" as="geometry" />
        </mxCell>
        <mxCell id="VmOv-Wi3rlKUdceMmR5n-101" style="edgeStyle=orthogonalEdgeStyle;rounded=0;orthogonalLoop=1;jettySize=auto;html=1;entryX=0.5;entryY=0;entryDx=0;entryDy=0;entryPerimeter=0;" parent="1" source="VmOv-Wi3rlKUdceMmR5n-5" target="VmOv-Wi3rlKUdceMmR5n-57" edge="1">
          <mxGeometry relative="1" as="geometry" />
        </mxCell>
        <mxCell id="VmOv-Wi3rlKUdceMmR5n-5" value="ApiGateway" style="sketch=0;points=[[0,0,0],[0.25,0,0],[0.5,0,0],[0.75,0,0],[1,0,0],[0,1,0],[0.25,1,0],[0.5,1,0],[0.75,1,0],[1,1,0],[0,0.25,0],[0,0.5,0],[0,0.75,0],[1,0.25,0],[1,0.5,0],[1,0.75,0]];outlineConnect=0;fontColor=#232F3E;gradientColor=#FF4F8B;gradientDirection=north;fillColor=#BC1356;strokeColor=#ffffff;dashed=0;verticalLabelPosition=bottom;verticalAlign=top;align=center;html=1;fontSize=12;fontStyle=0;aspect=fixed;shape=mxgraph.aws4.resourceIcon;resIcon=mxgraph.aws4.api_gateway;" parent="1" vertex="1">
          <mxGeometry x="60" y="239" width="78" height="78" as="geometry" />
        </mxCell>
        <mxCell id="VmOv-Wi3rlKUdceMmR5n-31" value="" style="edgeStyle=orthogonalEdgeStyle;rounded=0;orthogonalLoop=1;jettySize=auto;html=1;" parent="1" source="VmOv-Wi3rlKUdceMmR5n-6" target="VmOv-Wi3rlKUdceMmR5n-8" edge="1">
          <mxGeometry relative="1" as="geometry" />
        </mxCell>
        <mxCell id="VmOv-Wi3rlKUdceMmR5n-56" value="" style="edgeStyle=orthogonalEdgeStyle;rounded=0;orthogonalLoop=1;jettySize=auto;html=1;" parent="1" source="VmOv-Wi3rlKUdceMmR5n-6" target="VmOv-Wi3rlKUdceMmR5n-4" edge="1">
          <mxGeometry relative="1" as="geometry" />
        </mxCell>
        <mxCell id="VmOv-Wi3rlKUdceMmR5n-6" value="CodeCommit" style="sketch=0;points=[[0,0,0],[0.25,0,0],[0.5,0,0],[0.75,0,0],[1,0,0],[0,1,0],[0.25,1,0],[0.5,1,0],[0.75,1,0],[1,1,0],[0,0.25,0],[0,0.5,0],[0,0.75,0],[1,0.25,0],[1,0.5,0],[1,0.75,0]];outlineConnect=0;fontColor=#232F3E;gradientColor=#4D72F3;gradientDirection=north;fillColor=#3334B9;strokeColor=#ffffff;dashed=0;verticalLabelPosition=bottom;verticalAlign=top;align=center;html=1;fontSize=12;fontStyle=0;aspect=fixed;shape=mxgraph.aws4.resourceIcon;resIcon=mxgraph.aws4.codecommit;" parent="1" vertex="1">
          <mxGeometry x="-155" y="120" width="78" height="78" as="geometry" />
        </mxCell>
        <mxCell id="VmOv-Wi3rlKUdceMmR5n-30" value="" style="edgeStyle=orthogonalEdgeStyle;rounded=0;orthogonalLoop=1;jettySize=auto;html=1;" parent="1" source="VmOv-Wi3rlKUdceMmR5n-7" target="VmOv-Wi3rlKUdceMmR5n-6" edge="1">
          <mxGeometry relative="1" as="geometry" />
        </mxCell>
        <mxCell id="VmOv-Wi3rlKUdceMmR5n-7" value="CodeBuild" style="sketch=0;points=[[0,0,0],[0.25,0,0],[0.5,0,0],[0.75,0,0],[1,0,0],[0,1,0],[0.25,1,0],[0.5,1,0],[0.75,1,0],[1,1,0],[0,0.25,0],[0,0.5,0],[0,0.75,0],[1,0.25,0],[1,0.5,0],[1,0.75,0]];outlineConnect=0;fontColor=#232F3E;gradientColor=#4D72F3;gradientDirection=north;fillColor=#3334B9;strokeColor=#ffffff;dashed=0;verticalLabelPosition=bottom;verticalAlign=top;align=center;html=1;fontSize=12;fontStyle=0;aspect=fixed;shape=mxgraph.aws4.resourceIcon;resIcon=mxgraph.aws4.codebuild;" parent="1" vertex="1">
          <mxGeometry x="-300" y="120" width="78" height="78" as="geometry" />
        </mxCell>
        <mxCell id="VmOv-Wi3rlKUdceMmR5n-8" value="CodeDeploy" style="sketch=0;points=[[0,0,0],[0.25,0,0],[0.5,0,0],[0.75,0,0],[1,0,0],[0,1,0],[0.25,1,0],[0.5,1,0],[0.75,1,0],[1,1,0],[0,0.25,0],[0,0.5,0],[0,0.75,0],[1,0.25,0],[1,0.5,0],[1,0.75,0]];outlineConnect=0;fontColor=#232F3E;gradientColor=#4D72F3;gradientDirection=north;fillColor=#3334B9;strokeColor=#ffffff;dashed=0;verticalLabelPosition=bottom;verticalAlign=top;align=center;html=1;fontSize=12;fontStyle=0;aspect=fixed;shape=mxgraph.aws4.resourceIcon;resIcon=mxgraph.aws4.codedeploy;" parent="1" vertex="1">
          <mxGeometry y="120" width="78" height="78" as="geometry" />
        </mxCell>
        <mxCell id="VmOv-Wi3rlKUdceMmR5n-9" value="CodePipeline" style="sketch=0;points=[[0,0,0],[0.25,0,0],[0.5,0,0],[0.75,0,0],[1,0,0],[0,1,0],[0.25,1,0],[0.5,1,0],[0.75,1,0],[1,1,0],[0,0.25,0],[0,0.5,0],[0,0.75,0],[1,0.25,0],[1,0.5,0],[1,0.75,0]];outlineConnect=0;fontColor=#232F3E;gradientColor=#4D72F3;gradientDirection=north;fillColor=#3334B9;strokeColor=#ffffff;dashed=0;verticalLabelPosition=bottom;verticalAlign=top;align=center;html=1;fontSize=12;fontStyle=0;aspect=fixed;shape=mxgraph.aws4.resourceIcon;resIcon=mxgraph.aws4.codepipeline;" parent="1" vertex="1">
          <mxGeometry x="-140" y="10" width="78" height="78" as="geometry" />
        </mxCell>
        <mxCell id="ImrH6QWJ3HCnO4G5SzcW-12" value="" style="edgeStyle=orthogonalEdgeStyle;rounded=0;orthogonalLoop=1;jettySize=auto;html=1;" parent="1" source="VmOv-Wi3rlKUdceMmR5n-10" target="VmOv-Wi3rlKUdceMmR5n-77" edge="1">
          <mxGeometry relative="1" as="geometry" />
        </mxCell>
        <mxCell id="VmOv-Wi3rlKUdceMmR5n-10" value="Route 53" style="sketch=0;points=[[0,0,0],[0.25,0,0],[0.5,0,0],[0.75,0,0],[1,0,0],[0,1,0],[0.25,1,0],[0.5,1,0],[0.75,1,0],[1,1,0],[0,0.25,0],[0,0.5,0],[0,0.75,0],[1,0.25,0],[1,0.5,0],[1,0.75,0]];outlineConnect=0;fontColor=#232F3E;gradientColor=#945DF2;gradientDirection=north;fillColor=#5A30B5;strokeColor=#ffffff;dashed=0;verticalLabelPosition=bottom;verticalAlign=top;align=center;html=1;fontSize=12;fontStyle=0;aspect=fixed;shape=mxgraph.aws4.resourceIcon;resIcon=mxgraph.aws4.route_53;" parent="1" vertex="1">
          <mxGeometry x="-526" y="240" width="78" height="78" as="geometry" />
        </mxCell>
        <mxCell id="VmOv-Wi3rlKUdceMmR5n-16" style="edgeStyle=orthogonalEdgeStyle;rounded=0;orthogonalLoop=1;jettySize=auto;html=1;entryX=0;entryY=0.5;entryDx=0;entryDy=0;entryPerimeter=0;" parent="1" source="VmOv-Wi3rlKUdceMmR5n-11" target="VmOv-Wi3rlKUdceMmR5n-4" edge="1">
          <mxGeometry relative="1" as="geometry" />
        </mxCell>
        <mxCell id="VmOv-Wi3rlKUdceMmR5n-111" style="edgeStyle=orthogonalEdgeStyle;rounded=0;orthogonalLoop=1;jettySize=auto;html=1;shape=arrow;" parent="1" source="VmOv-Wi3rlKUdceMmR5n-11" edge="1">
          <mxGeometry relative="1" as="geometry">
            <Array as="points" />
            <mxPoint x="-231" y="370" as="targetPoint" />
          </mxGeometry>
        </mxCell>
        <mxCell id="VmOv-Wi3rlKUdceMmR5n-11" value="CloudFront" style="sketch=0;points=[[0,0,0],[0.25,0,0],[0.5,0,0],[0.75,0,0],[1,0,0],[0,1,0],[0.25,1,0],[0.5,1,0],[0.75,1,0],[1,1,0],[0,0.25,0],[0,0.5,0],[0,0.75,0],[1,0.25,0],[1,0.5,0],[1,0.75,0]];outlineConnect=0;fontColor=#232F3E;gradientColor=#945DF2;gradientDirection=north;fillColor=#5A30B5;strokeColor=#ffffff;dashed=0;verticalLabelPosition=bottom;verticalAlign=top;align=center;html=1;fontSize=12;fontStyle=0;aspect=fixed;shape=mxgraph.aws4.resourceIcon;resIcon=mxgraph.aws4.cloudfront;" parent="1" vertex="1">
          <mxGeometry x="-270" y="240" width="78" height="78" as="geometry" />
        </mxCell>
        <mxCell id="ImrH6QWJ3HCnO4G5SzcW-9" value="" style="edgeStyle=orthogonalEdgeStyle;rounded=0;orthogonalLoop=1;jettySize=auto;html=1;" parent="1" source="VmOv-Wi3rlKUdceMmR5n-13" target="VmOv-Wi3rlKUdceMmR5n-114" edge="1">
          <mxGeometry relative="1" as="geometry" />
        </mxCell>
        <mxCell id="ImrH6QWJ3HCnO4G5SzcW-10" value="DataSync" style="edgeLabel;html=1;align=center;verticalAlign=middle;resizable=0;points=[];" parent="ImrH6QWJ3HCnO4G5SzcW-9" vertex="1" connectable="0">
          <mxGeometry x="-0.7736" y="1" relative="1" as="geometry">
            <mxPoint as="offset" />
          </mxGeometry>
        </mxCell>
        <mxCell id="VmOv-Wi3rlKUdceMmR5n-13" value="S3- Files and Reports" style="sketch=0;points=[[0,0,0],[0.25,0,0],[0.5,0,0],[0.75,0,0],[1,0,0],[0,1,0],[0.25,1,0],[0.5,1,0],[0.75,1,0],[1,1,0],[0,0.25,0],[0,0.5,0],[0,0.75,0],[1,0.25,0],[1,0.5,0],[1,0.75,0]];outlineConnect=0;fontColor=#232F3E;gradientColor=#60A337;gradientDirection=north;fillColor=#277116;strokeColor=#ffffff;dashed=0;verticalLabelPosition=bottom;verticalAlign=top;align=center;html=1;fontSize=12;fontStyle=0;aspect=fixed;shape=mxgraph.aws4.resourceIcon;resIcon=mxgraph.aws4.s3;" parent="1" vertex="1">
          <mxGeometry x="78" y="535" width="78" height="78" as="geometry" />
        </mxCell>
        <mxCell id="VmOv-Wi3rlKUdceMmR5n-44" value="" style="edgeStyle=orthogonalEdgeStyle;rounded=0;orthogonalLoop=1;jettySize=auto;html=1;" parent="1" source="VmOv-Wi3rlKUdceMmR5n-43" target="VmOv-Wi3rlKUdceMmR5n-10" edge="1">
          <mxGeometry relative="1" as="geometry" />
        </mxCell>
        <mxCell id="VmOv-Wi3rlKUdceMmR5n-43" value="Hospital" style="shape=umlActor;verticalLabelPosition=bottom;verticalAlign=top;html=1;outlineConnect=0;" parent="1" vertex="1">
          <mxGeometry x="-626" y="249.5" width="30" height="60" as="geometry" />
        </mxCell>
        <mxCell id="VmOv-Wi3rlKUdceMmR5n-49" value="SNS" style="sketch=0;points=[[0,0,0],[0.25,0,0],[0.5,0,0],[0.75,0,0],[1,0,0],[0,1,0],[0.25,1,0],[0.5,1,0],[0.75,1,0],[1,1,0],[0,0.25,0],[0,0.5,0],[0,0.75,0],[1,0.25,0],[1,0.5,0],[1,0.75,0]];outlineConnect=0;fontColor=#232F3E;gradientColor=#FF4F8B;gradientDirection=north;fillColor=#BC1356;strokeColor=#ffffff;dashed=0;verticalLabelPosition=bottom;verticalAlign=top;align=center;html=1;fontSize=12;fontStyle=0;aspect=fixed;shape=mxgraph.aws4.resourceIcon;resIcon=mxgraph.aws4.sns;" parent="1" vertex="1">
          <mxGeometry x="192" y="703" width="78" height="78" as="geometry" />
        </mxCell>
        <mxCell id="ImrH6QWJ3HCnO4G5SzcW-17" style="edgeStyle=orthogonalEdgeStyle;rounded=0;orthogonalLoop=1;jettySize=auto;html=1;" parent="1" source="VmOv-Wi3rlKUdceMmR5n-51" edge="1">
          <mxGeometry relative="1" as="geometry">
            <mxPoint x="-390" y="150" as="targetPoint" />
          </mxGeometry>
        </mxCell>
        <mxCell id="VmOv-Wi3rlKUdceMmR5n-51" value="Developers" style="shape=umlActor;verticalLabelPosition=bottom;verticalAlign=top;html=1;outlineConnect=0;" parent="1" vertex="1">
          <mxGeometry x="-480" y="120" width="30" height="60" as="geometry" />
        </mxCell>
        <mxCell id="VmOv-Wi3rlKUdceMmR5n-92" style="edgeStyle=orthogonalEdgeStyle;rounded=0;orthogonalLoop=1;jettySize=auto;html=1;" parent="1" source="VmOv-Wi3rlKUdceMmR5n-57" edge="1">
          <mxGeometry relative="1" as="geometry">
            <mxPoint x="231.47058823529414" y="477.99999999999955" as="targetPoint" />
          </mxGeometry>
        </mxCell>
        <mxCell id="VmOv-Wi3rlKUdceMmR5n-102" value="" style="edgeStyle=orthogonalEdgeStyle;rounded=0;orthogonalLoop=1;jettySize=auto;html=1;" parent="1" source="VmOv-Wi3rlKUdceMmR5n-57" target="VmOv-Wi3rlKUdceMmR5n-100" edge="1">
          <mxGeometry relative="1" as="geometry" />
        </mxCell>
        <mxCell id="VmOv-Wi3rlKUdceMmR5n-108" style="edgeStyle=orthogonalEdgeStyle;rounded=0;orthogonalLoop=1;jettySize=auto;html=1;entryX=1;entryY=0.22;entryDx=0;entryDy=0;entryPerimeter=0;" parent="1" edge="1">
          <mxGeometry relative="1" as="geometry">
            <mxPoint x="192" y="380.0588235294117" as="sourcePoint" />
            <mxPoint x="33" y="377.82000000000016" as="targetPoint" />
            <Array as="points">
              <mxPoint x="192" y="378" />
            </Array>
          </mxGeometry>
        </mxCell>
        <mxCell id="ImrH6QWJ3HCnO4G5SzcW-22" style="edgeStyle=orthogonalEdgeStyle;rounded=0;orthogonalLoop=1;jettySize=auto;html=1;" parent="1" source="VmOv-Wi3rlKUdceMmR5n-57" edge="1">
          <mxGeometry relative="1" as="geometry">
            <mxPoint x="730" y="397" as="targetPoint" />
          </mxGeometry>
        </mxCell>
        <mxCell id="VmOv-Wi3rlKUdceMmR5n-57" value="Step Functions" style="sketch=0;points=[[0,0,0],[0.25,0,0],[0.5,0,0],[0.75,0,0],[1,0,0],[0,1,0],[0.25,1,0],[0.5,1,0],[0.75,1,0],[1,1,0],[0,0.25,0],[0,0.5,0],[0,0.75,0],[1,0.25,0],[1,0.5,0],[1,0.75,0]];outlineConnect=0;fontColor=#232F3E;gradientColor=#FF4F8B;gradientDirection=north;fillColor=#BC1356;strokeColor=#ffffff;dashed=0;verticalLabelPosition=bottom;verticalAlign=top;align=center;html=1;fontSize=12;fontStyle=0;aspect=fixed;shape=mxgraph.aws4.resourceIcon;resIcon=mxgraph.aws4.step_functions;" parent="1" vertex="1">
          <mxGeometry x="192" y="358" width="78" height="78" as="geometry" />
        </mxCell>
        <mxCell id="ImrH6QWJ3HCnO4G5SzcW-13" value="" style="edgeStyle=orthogonalEdgeStyle;rounded=0;orthogonalLoop=1;jettySize=auto;html=1;" parent="1" source="VmOv-Wi3rlKUdceMmR5n-77" target="VmOv-Wi3rlKUdceMmR5n-11" edge="1">
          <mxGeometry relative="1" as="geometry" />
        </mxCell>
        <mxCell id="VmOv-Wi3rlKUdceMmR5n-77" value="WAF" style="sketch=0;points=[[0,0,0],[0.25,0,0],[0.5,0,0],[0.75,0,0],[1,0,0],[0,1,0],[0.25,1,0],[0.5,1,0],[0.75,1,0],[1,1,0],[0,0.25,0],[0,0.5,0],[0,0.75,0],[1,0.25,0],[1,0.5,0],[1,0.75,0]];outlineConnect=0;fontColor=#232F3E;gradientColor=#F54749;gradientDirection=north;fillColor=#C7131F;strokeColor=#ffffff;dashed=0;verticalLabelPosition=bottom;verticalAlign=top;align=center;html=1;fontSize=12;fontStyle=0;aspect=fixed;shape=mxgraph.aws4.resourceIcon;resIcon=mxgraph.aws4.waf;" parent="1" vertex="1">
          <mxGeometry x="-380" y="240.5" width="78" height="78" as="geometry" />
        </mxCell>
        <mxCell id="VmOv-Wi3rlKUdceMmR5n-79" value="ECR" style="sketch=0;points=[[0,0,0],[0.25,0,0],[0.5,0,0],[0.75,0,0],[1,0,0],[0,1,0],[0.25,1,0],[0.5,1,0],[0.75,1,0],[1,1,0],[0,0.25,0],[0,0.5,0],[0,0.75,0],[1,0.25,0],[1,0.5,0],[1,0.75,0]];outlineConnect=0;fontColor=#232F3E;gradientColor=#F78E04;gradientDirection=north;fillColor=#D05C17;strokeColor=#ffffff;dashed=0;verticalLabelPosition=bottom;verticalAlign=top;align=center;html=1;fontSize=12;fontStyle=0;aspect=fixed;shape=mxgraph.aws4.resourceIcon;resIcon=mxgraph.aws4.ecr;" parent="1" vertex="1">
          <mxGeometry x="298" width="78" height="78" as="geometry" />
        </mxCell>
        <mxCell id="VmOv-Wi3rlKUdceMmR5n-84" value="IAM" style="outlineConnect=0;dashed=0;verticalLabelPosition=bottom;verticalAlign=top;align=center;html=1;shape=mxgraph.aws3.iam;fillColor=#759C3E;gradientColor=none;" parent="1" vertex="1">
          <mxGeometry x="416" y="-3.5" width="42" height="81" as="geometry" />
        </mxCell>
        <mxCell id="VmOv-Wi3rlKUdceMmR5n-85" value="CloudTrail" style="sketch=0;points=[[0,0,0],[0.25,0,0],[0.5,0,0],[0.75,0,0],[1,0,0],[0,1,0],[0.25,1,0],[0.5,1,0],[0.75,1,0],[1,1,0],[0,0.25,0],[0,0.5,0],[0,0.75,0],[1,0.25,0],[1,0.5,0],[1,0.75,0]];points=[[0,0,0],[0.25,0,0],[0.5,0,0],[0.75,0,0],[1,0,0],[0,1,0],[0.25,1,0],[0.5,1,0],[0.75,1,0],[1,1,0],[0,0.25,0],[0,0.5,0],[0,0.75,0],[1,0.25,0],[1,0.5,0],[1,0.75,0]];outlineConnect=0;fontColor=#232F3E;gradientColor=#F34482;gradientDirection=north;fillColor=#BC1356;strokeColor=#ffffff;dashed=0;verticalLabelPosition=bottom;verticalAlign=top;align=center;html=1;fontSize=12;fontStyle=0;aspect=fixed;shape=mxgraph.aws4.resourceIcon;resIcon=mxgraph.aws4.cloudtrail;" parent="1" vertex="1">
          <mxGeometry x="490" y="1.5" width="78" height="78" as="geometry" />
        </mxCell>
        <mxCell id="VmOv-Wi3rlKUdceMmR5n-86" value="CloudWatch" style="sketch=0;points=[[0,0,0],[0.25,0,0],[0.5,0,0],[0.75,0,0],[1,0,0],[0,1,0],[0.25,1,0],[0.5,1,0],[0.75,1,0],[1,1,0],[0,0.25,0],[0,0.5,0],[0,0.75,0],[1,0.25,0],[1,0.5,0],[1,0.75,0]];points=[[0,0,0],[0.25,0,0],[0.5,0,0],[0.75,0,0],[1,0,0],[0,1,0],[0.25,1,0],[0.5,1,0],[0.75,1,0],[1,1,0],[0,0.25,0],[0,0.5,0],[0,0.75,0],[1,0.25,0],[1,0.5,0],[1,0.75,0]];outlineConnect=0;fontColor=#232F3E;gradientColor=#F34482;gradientDirection=north;fillColor=#BC1356;strokeColor=#ffffff;dashed=0;verticalLabelPosition=bottom;verticalAlign=top;align=center;html=1;fontSize=12;fontStyle=0;aspect=fixed;shape=mxgraph.aws4.resourceIcon;resIcon=mxgraph.aws4.cloudwatch_2;" parent="1" vertex="1">
          <mxGeometry x="591" y="3.5" width="78" height="78" as="geometry" />
        </mxCell>
        <mxCell id="VmOv-Wi3rlKUdceMmR5n-96" value="" style="edgeStyle=orthogonalEdgeStyle;rounded=0;orthogonalLoop=1;jettySize=auto;html=1;" parent="1" source="VmOv-Wi3rlKUdceMmR5n-93" target="VmOv-Wi3rlKUdceMmR5n-5" edge="1">
          <mxGeometry relative="1" as="geometry" />
        </mxCell>
        <mxCell id="VmOv-Wi3rlKUdceMmR5n-93" value="Cognito" style="sketch=0;points=[[0,0,0],[0.25,0,0],[0.5,0,0],[0.75,0,0],[1,0,0],[0,1,0],[0.25,1,0],[0.5,1,0],[0.75,1,0],[1,1,0],[0,0.25,0],[0,0.5,0],[0,0.75,0],[1,0.25,0],[1,0.5,0],[1,0.75,0]];outlineConnect=0;fontColor=#232F3E;gradientColor=#F54749;gradientDirection=north;fillColor=#C7131F;strokeColor=#ffffff;dashed=0;verticalLabelPosition=bottom;verticalAlign=top;align=center;html=1;fontSize=12;fontStyle=0;aspect=fixed;shape=mxgraph.aws4.resourceIcon;resIcon=mxgraph.aws4.cognito;" parent="1" vertex="1">
          <mxGeometry x="-45" y="240" width="78" height="78" as="geometry" />
        </mxCell>
        <mxCell id="VmOv-Wi3rlKUdceMmR5n-97" value="ACM" style="sketch=0;points=[[0,0,0],[0.25,0,0],[0.5,0,0],[0.75,0,0],[1,0,0],[0,1,0],[0.25,1,0],[0.5,1,0],[0.75,1,0],[1,1,0],[0,0.25,0],[0,0.5,0],[0,0.75,0],[1,0.25,0],[1,0.5,0],[1,0.75,0]];outlineConnect=0;fontColor=#232F3E;gradientColor=#F54749;gradientDirection=north;fillColor=#C7131F;strokeColor=#ffffff;dashed=0;verticalLabelPosition=bottom;verticalAlign=top;align=center;html=1;fontSize=12;fontStyle=0;aspect=fixed;shape=mxgraph.aws4.resourceIcon;resIcon=mxgraph.aws4.certificate_manager_3;" parent="1" vertex="1">
          <mxGeometry x="188" y="3.5" width="78" height="78" as="geometry" />
        </mxCell>
        <mxCell id="VmOv-Wi3rlKUdceMmR5n-107" value="" style="edgeStyle=orthogonalEdgeStyle;rounded=0;orthogonalLoop=1;jettySize=auto;html=1;" parent="1" source="VmOv-Wi3rlKUdceMmR5n-98" target="VmOv-Wi3rlKUdceMmR5n-99" edge="1">
          <mxGeometry relative="1" as="geometry">
            <Array as="points">
              <mxPoint x="-70" y="401" />
              <mxPoint x="-70" y="401" />
            </Array>
          </mxGeometry>
        </mxCell>
        <mxCell id="VmOv-Wi3rlKUdceMmR5n-98" value="AWS Fargate" style="sketch=0;outlineConnect=0;fontColor=#232F3E;gradientColor=none;strokeColor=#ffffff;fillColor=#232F3E;dashed=0;verticalLabelPosition=middle;verticalAlign=bottom;align=center;html=1;whiteSpace=wrap;fontSize=10;fontStyle=1;spacing=3;shape=mxgraph.aws4.productIcon;prIcon=mxgraph.aws4.fargate;" parent="1" vertex="1">
          <mxGeometry x="-160" y="360" width="80" height="100" as="geometry" />
        </mxCell>
        <mxCell id="ImrH6QWJ3HCnO4G5SzcW-2" value="" style="edgeStyle=orthogonalEdgeStyle;rounded=0;orthogonalLoop=1;jettySize=auto;html=1;" parent="1" source="VmOv-Wi3rlKUdceMmR5n-99" target="ImrH6QWJ3HCnO4G5SzcW-1" edge="1">
          <mxGeometry relative="1" as="geometry" />
        </mxCell>
        <mxCell id="ImrH6QWJ3HCnO4G5SzcW-28" style="edgeStyle=orthogonalEdgeStyle;rounded=0;orthogonalLoop=1;jettySize=auto;html=1;entryX=0.756;entryY=0.128;entryDx=0;entryDy=0;entryPerimeter=0;" parent="1" edge="1">
          <mxGeometry relative="1" as="geometry">
            <mxPoint x="-21" y="435" as="sourcePoint" />
            <mxPoint x="-87.03200000000015" y="484.9839999999999" as="targetPoint" />
            <Array as="points">
              <mxPoint x="-21" y="454" />
              <mxPoint x="-87" y="454" />
            </Array>
          </mxGeometry>
        </mxCell>
        <mxCell id="ImrH6QWJ3HCnO4G5SzcW-29" value="" style="edgeStyle=orthogonalEdgeStyle;rounded=0;orthogonalLoop=1;jettySize=auto;html=1;" parent="1" source="VmOv-Wi3rlKUdceMmR5n-99" target="ImrH6QWJ3HCnO4G5SzcW-1" edge="1">
          <mxGeometry relative="1" as="geometry" />
        </mxCell>
        <mxCell id="ImrH6QWJ3HCnO4G5SzcW-30" value="" style="edgeStyle=orthogonalEdgeStyle;rounded=0;orthogonalLoop=1;jettySize=auto;html=1;" parent="1" source="VmOv-Wi3rlKUdceMmR5n-99" target="ImrH6QWJ3HCnO4G5SzcW-1" edge="1">
          <mxGeometry relative="1" as="geometry" />
        </mxCell>
        <mxCell id="VmOv-Wi3rlKUdceMmR5n-99" value="RDS" style="outlineConnect=0;dashed=0;verticalLabelPosition=bottom;verticalAlign=top;align=center;html=1;shape=mxgraph.aws3.rds;fillColor=#2E73B8;gradientColor=none;" parent="1" vertex="1">
          <mxGeometry x="-39" y="360" width="72" height="81" as="geometry" />
        </mxCell>
        <mxCell id="VmOv-Wi3rlKUdceMmR5n-103" value="" style="edgeStyle=orthogonalEdgeStyle;rounded=0;orthogonalLoop=1;jettySize=auto;html=1;" parent="1" source="VmOv-Wi3rlKUdceMmR5n-100" target="VmOv-Wi3rlKUdceMmR5n-13" edge="1">
          <mxGeometry relative="1" as="geometry" />
        </mxCell>
        <mxCell id="VmOv-Wi3rlKUdceMmR5n-100" value="SFTP Server" style="sketch=0;points=[[0,0,0],[0.25,0,0],[0.5,0,0],[0.75,0,0],[1,0,0],[0,1,0],[0.25,1,0],[0.5,1,0],[0.75,1,0],[1,1,0],[0,0.25,0],[0,0.5,0],[0,0.75,0],[1,0.25,0],[1,0.5,0],[1,0.75,0]];outlineConnect=0;fontColor=#232F3E;gradientColor=#4AB29A;gradientDirection=north;fillColor=#116D5B;strokeColor=#ffffff;dashed=0;verticalLabelPosition=bottom;verticalAlign=top;align=center;html=1;fontSize=12;fontStyle=0;aspect=fixed;shape=mxgraph.aws4.resourceIcon;resIcon=mxgraph.aws4.transfer_for_sftp;" parent="1" vertex="1">
          <mxGeometry x="78" y="416" width="78" height="78" as="geometry" />
        </mxCell>
        <mxCell id="ImrH6QWJ3HCnO4G5SzcW-7" value="" style="edgeStyle=orthogonalEdgeStyle;rounded=0;orthogonalLoop=1;jettySize=auto;html=1;" parent="1" source="VmOv-Wi3rlKUdceMmR5n-113" target="VmOv-Wi3rlKUdceMmR5n-49" edge="1">
          <mxGeometry relative="1" as="geometry" />
        </mxCell>
        <mxCell id="ImrH6QWJ3HCnO4G5SzcW-8" style="edgeStyle=orthogonalEdgeStyle;rounded=0;orthogonalLoop=1;jettySize=auto;html=1;" parent="1" source="VmOv-Wi3rlKUdceMmR5n-113" target="VmOv-Wi3rlKUdceMmR5n-13" edge="1">
          <mxGeometry relative="1" as="geometry" />
        </mxCell>
        <mxCell id="ImrH6QWJ3HCnO4G5SzcW-20" style="edgeStyle=orthogonalEdgeStyle;rounded=0;orthogonalLoop=1;jettySize=auto;html=1;" parent="1" source="VmOv-Wi3rlKUdceMmR5n-113" edge="1">
          <mxGeometry relative="1" as="geometry">
            <mxPoint x="399" y="670" as="targetPoint" />
          </mxGeometry>
        </mxCell>
        <mxCell id="VmOv-Wi3rlKUdceMmR5n-113" value="Payment Processor" style="outlineConnect=0;dashed=0;verticalLabelPosition=bottom;verticalAlign=top;align=center;html=1;shape=mxgraph.aws3.lambda_function;fillColor=#F58534;gradientColor=none;" parent="1" vertex="1">
          <mxGeometry x="197" y="591" width="69" height="72" as="geometry" />
        </mxCell>
        <mxCell id="VmOv-Wi3rlKUdceMmR5n-114" value="EFS" style="sketch=0;points=[[0,0,0],[0.25,0,0],[0.5,0,0],[0.75,0,0],[1,0,0],[0,1,0],[0.25,1,0],[0.5,1,0],[0.75,1,0],[1,1,0],[0,0.25,0],[0,0.5,0],[0,0.75,0],[1,0.25,0],[1,0.5,0],[1,0.75,0]];outlineConnect=0;fontColor=#232F3E;gradientColor=#60A337;gradientDirection=north;fillColor=#277116;strokeColor=#ffffff;dashed=0;verticalLabelPosition=bottom;verticalAlign=top;align=center;html=1;fontSize=12;fontStyle=0;aspect=fixed;shape=mxgraph.aws4.resourceIcon;resIcon=mxgraph.aws4.efs_standard;" parent="1" vertex="1">
          <mxGeometry x="78" y="640" width="78" height="78" as="geometry" />
        </mxCell>
        <mxCell id="VmOv-Wi3rlKUdceMmR5n-116" value="STS" style="sketch=0;outlineConnect=0;fontColor=#232F3E;gradientColor=none;fillColor=#BF0816;strokeColor=none;dashed=0;verticalLabelPosition=bottom;verticalAlign=top;align=center;html=1;fontSize=12;fontStyle=0;aspect=fixed;pointerEvents=1;shape=mxgraph.aws4.sts;" parent="1" vertex="1">
          <mxGeometry x="60" y="17.5" width="78" height="50" as="geometry" />
        </mxCell>
        <mxCell id="ImrH6QWJ3HCnO4G5SzcW-1" value="Secrets Manager" style="sketch=0;points=[[0,0,0],[0.25,0,0],[0.5,0,0],[0.75,0,0],[1,0,0],[0,1,0],[0.25,1,0],[0.5,1,0],[0.75,1,0],[1,1,0],[0,0.25,0],[0,0.5,0],[0,0.75,0],[1,0.25,0],[1,0.5,0],[1,0.75,0]];outlineConnect=0;fontColor=#232F3E;gradientColor=#F54749;gradientDirection=north;fillColor=#C7131F;strokeColor=#ffffff;dashed=0;verticalLabelPosition=bottom;verticalAlign=top;align=center;html=1;fontSize=12;fontStyle=0;aspect=fixed;shape=mxgraph.aws4.resourceIcon;resIcon=mxgraph.aws4.secrets_manager;" parent="1" vertex="1">
          <mxGeometry x="-42" y="478" width="78" height="78" as="geometry" />
        </mxCell>
        <mxCell id="ImrH6QWJ3HCnO4G5SzcW-6" value="" style="edgeStyle=orthogonalEdgeStyle;rounded=0;orthogonalLoop=1;jettySize=auto;html=1;" parent="1" source="ImrH6QWJ3HCnO4G5SzcW-5" target="VmOv-Wi3rlKUdceMmR5n-113" edge="1">
          <mxGeometry relative="1" as="geometry" />
        </mxCell>
        <mxCell id="ImrH6QWJ3HCnO4G5SzcW-5" value="SQS" style="sketch=0;points=[[0,0,0],[0.25,0,0],[0.5,0,0],[0.75,0,0],[1,0,0],[0,1,0],[0.25,1,0],[0.5,1,0],[0.75,1,0],[1,1,0],[0,0.25,0],[0,0.5,0],[0,0.75,0],[1,0.25,0],[1,0.5,0],[1,0.75,0]];outlineConnect=0;fontColor=#232F3E;gradientColor=#FF4F8B;gradientDirection=north;fillColor=#BC1356;strokeColor=#ffffff;dashed=0;verticalLabelPosition=bottom;verticalAlign=top;align=center;html=1;fontSize=12;fontStyle=0;aspect=fixed;shape=mxgraph.aws4.resourceIcon;resIcon=mxgraph.aws4.sqs;" parent="1" vertex="1">
          <mxGeometry x="192" y="478" width="78" height="78" as="geometry" />
        </mxCell>
        <mxCell id="ImrH6QWJ3HCnO4G5SzcW-18" value="Users login, store files, send to payers, stores in db, batches payer infor and processes and sends to Client via VPN, token manager?" style="text;html=1;align=center;verticalAlign=middle;resizable=0;points=[];autosize=1;strokeColor=none;fillColor=none;" parent="1" vertex="1">
          <mxGeometry x="135" y="210.5" width="730" height="30" as="geometry" />
        </mxCell>
        <mxCell id="ImrH6QWJ3HCnO4G5SzcW-21" value="Payer Interface" style="shape=umlActor;verticalLabelPosition=bottom;verticalAlign=top;html=1;outlineConnect=0;" parent="1" vertex="1">
          <mxGeometry x="750" y="370.5" width="30" height="60" as="geometry" />
        </mxCell>
        <mxCell id="ImrH6QWJ3HCnO4G5SzcW-23" value="Macie" style="sketch=0;points=[[0,0,0],[0.25,0,0],[0.5,0,0],[0.75,0,0],[1,0,0],[0,1,0],[0.25,1,0],[0.5,1,0],[0.75,1,0],[1,1,0],[0,0.25,0],[0,0.5,0],[0,0.75,0],[1,0.25,0],[1,0.5,0],[1,0.75,0]];outlineConnect=0;fontColor=#232F3E;gradientColor=#F54749;gradientDirection=north;fillColor=#C7131F;strokeColor=#ffffff;dashed=0;verticalLabelPosition=bottom;verticalAlign=top;align=center;html=1;fontSize=12;fontStyle=0;aspect=fixed;shape=mxgraph.aws4.resourceIcon;resIcon=mxgraph.aws4.macie;" parent="1" vertex="1">
          <mxGeometry x="-39" y="10" width="78" height="78" as="geometry" />
        </mxCell>
        <mxCell id="ImrH6QWJ3HCnO4G5SzcW-24" value="VPC" style="points=[[0,0],[0.25,0],[0.5,0],[0.75,0],[1,0],[1,0.25],[1,0.5],[1,0.75],[1,1],[0.75,1],[0.5,1],[0.25,1],[0,1],[0,0.75],[0,0.5],[0,0.25]];outlineConnect=0;gradientColor=none;html=1;whiteSpace=wrap;fontSize=12;fontStyle=0;container=1;pointerEvents=0;collapsible=0;recursiveResize=0;shape=mxgraph.aws4.group;grIcon=mxgraph.aws4.group_vpc;strokeColor=#248814;fillColor=none;verticalAlign=top;align=left;spacingLeft=30;fontColor=#AAB7B8;dashed=0;" parent="1" vertex="1">
          <mxGeometry x="-330" y="339" width="840" height="391" as="geometry" />
        </mxCell>
        <mxCell id="ImrH6QWJ3HCnO4G5SzcW-26" value="" style="edgeStyle=orthogonalEdgeStyle;rounded=0;orthogonalLoop=1;jettySize=auto;html=1;" parent="1" source="ImrH6QWJ3HCnO4G5SzcW-25" target="VmOv-Wi3rlKUdceMmR5n-98" edge="1">
          <mxGeometry relative="1" as="geometry" />
        </mxCell>
        <mxCell id="ImrH6QWJ3HCnO4G5SzcW-25" value="ELB" style="sketch=0;outlineConnect=0;fontColor=#232F3E;gradientColor=none;fillColor=#4D27AA;strokeColor=none;dashed=0;verticalLabelPosition=bottom;verticalAlign=top;align=center;html=1;fontSize=12;fontStyle=0;aspect=fixed;pointerEvents=1;shape=mxgraph.aws4.application_load_balancer;" parent="1" vertex="1">
          <mxGeometry x="-280" y="370.5" width="78" height="78" as="geometry" />
        </mxCell>
        <mxCell id="ImrH6QWJ3HCnO4G5SzcW-27" value="CloudHSM" style="sketch=0;points=[[0,0,0],[0.25,0,0],[0.5,0,0],[0.75,0,0],[1,0,0],[0,1,0],[0.25,1,0],[0.5,1,0],[0.75,1,0],[1,1,0],[0,0.25,0],[0,0.5,0],[0,0.75,0],[1,0.25,0],[1,0.5,0],[1,0.75,0]];outlineConnect=0;fontColor=#232F3E;gradientColor=#F54749;gradientDirection=north;fillColor=#C7131F;strokeColor=#ffffff;dashed=0;verticalLabelPosition=bottom;verticalAlign=top;align=center;html=1;fontSize=12;fontStyle=0;aspect=fixed;shape=mxgraph.aws4.resourceIcon;resIcon=mxgraph.aws4.cloudhsm;" parent="1" vertex="1">
          <mxGeometry x="-155" y="481" width="78" height="78" as="geometry" />
        </mxCell>
        <mxCell id="ImrH6QWJ3HCnO4G5SzcW-32" value="Site to site VPN" style="sketch=0;points=[[0,0,0],[0.25,0,0],[0.5,0,0],[0.75,0,0],[1,0,0],[0,1,0],[0.25,1,0],[0.5,1,0],[0.75,1,0],[1,1,0],[0,0.25,0],[0,0.5,0],[0,0.75,0],[1,0.25,0],[1,0.5,0],[1,0.75,0]];outlineConnect=0;fontColor=#232F3E;gradientColor=#945DF2;gradientDirection=north;fillColor=#5A30B5;strokeColor=#ffffff;dashed=0;verticalLabelPosition=bottom;verticalAlign=top;align=center;html=1;fontSize=12;fontStyle=0;aspect=fixed;shape=mxgraph.aws4.resourceIcon;resIcon=mxgraph.aws4.site_to_site_vpn;" parent="1" vertex="1">
          <mxGeometry x="360" y="670" width="78" height="78" as="geometry" />
        </mxCell>
        <mxCell id="ImrH6QWJ3HCnO4G5SzcW-33" value="Config" style="sketch=0;points=[[0,0,0],[0.25,0,0],[0.5,0,0],[0.75,0,0],[1,0,0],[0,1,0],[0.25,1,0],[0.5,1,0],[0.75,1,0],[1,1,0],[0,0.25,0],[0,0.5,0],[0,0.75,0],[1,0.25,0],[1,0.5,0],[1,0.75,0]];points=[[0,0,0],[0.25,0,0],[0.5,0,0],[0.75,0,0],[1,0,0],[0,1,0],[0.25,1,0],[0.5,1,0],[0.75,1,0],[1,1,0],[0,0.25,0],[0,0.5,0],[0,0.75,0],[1,0.25,0],[1,0.5,0],[1,0.75,0]];outlineConnect=0;fontColor=#232F3E;gradientColor=#F34482;gradientDirection=north;fillColor=#BC1356;strokeColor=#ffffff;dashed=0;verticalLabelPosition=bottom;verticalAlign=top;align=center;html=1;fontSize=12;fontStyle=0;aspect=fixed;shape=mxgraph.aws4.resourceIcon;resIcon=mxgraph.aws4.config;" parent="1" vertex="1">
          <mxGeometry x="490" y="102" width="78" height="78" as="geometry" />
        </mxCell>
        <mxCell id="ImrH6QWJ3HCnO4G5SzcW-34" value="Trusted Advisor" style="sketch=0;points=[[0,0,0],[0.25,0,0],[0.5,0,0],[0.75,0,0],[1,0,0],[0,1,0],[0.25,1,0],[0.5,1,0],[0.75,1,0],[1,1,0],[0,0.25,0],[0,0.5,0],[0,0.75,0],[1,0.25,0],[1,0.5,0],[1,0.75,0]];points=[[0,0,0],[0.25,0,0],[0.5,0,0],[0.75,0,0],[1,0,0],[0,1,0],[0.25,1,0],[0.5,1,0],[0.75,1,0],[1,1,0],[0,0.25,0],[0,0.5,0],[0,0.75,0],[1,0.25,0],[1,0.5,0],[1,0.75,0]];outlineConnect=0;fontColor=#232F3E;gradientColor=#F34482;gradientDirection=north;fillColor=#BC1356;strokeColor=#ffffff;dashed=0;verticalLabelPosition=bottom;verticalAlign=top;align=center;html=1;fontSize=12;fontStyle=0;aspect=fixed;shape=mxgraph.aws4.resourceIcon;resIcon=mxgraph.aws4.trusted_advisor;" parent="1" vertex="1">
          <mxGeometry x="591" y="102" width="78" height="78" as="geometry" />
        </mxCell>
      </root>
    </mxGraphModel>
  </diagram>
</mxfile>
